<svg width="132" height="26" viewBox="0 0 132 26" fill="none" xmlns="http://www.w3.org/2000/svg">
<path d="M44.4601 13.2753H51.8264L49.7068 23.2454C48.5379 23.6466 47.452 23.917 46.4488 24.0566C45.4545 24.2049 44.399 24.279 43.2825 24.279C41.0233 24.279 39.2787 23.6379 38.0488 22.3557C36.8189 21.0734 36.204 19.2329 36.204 16.8342C36.204 14.4965 36.6706 12.3856 37.604 10.5014C38.5373 8.60861 39.8501 7.15191 41.5423 6.13135C43.2345 5.10206 45.1884 4.58742 47.404 4.58742C49.3056 4.58742 51.0937 5.0192 52.7685 5.88275L51.2638 9.16686C50.6183 8.81795 49.9728 8.53883 49.3274 8.32948C48.6819 8.12013 47.9797 8.01546 47.2208 8.01546C45.8862 8.01546 44.6912 8.37746 43.6358 9.10144C42.589 9.82543 41.7647 10.8591 41.1629 12.2024C40.5697 13.537 40.2731 14.9762 40.2731 16.5201C40.2731 18.0205 40.5872 19.1239 41.2152 19.8304C41.852 20.5282 42.8245 20.8772 44.133 20.8772C44.7959 20.8772 45.5373 20.7725 46.3573 20.5631L47.2208 16.651H43.7274L44.4601 13.2753Z" fill="#CACACA"/>
<path d="M57.518 24.0173H53.5797L57.8975 3.65845H61.8358L57.518 24.0173Z" fill="#CACACA"/>
<path d="M71.5835 14.9108C71.5835 13.1924 70.9598 12.3332 69.7124 12.3332C69.0582 12.3332 68.4694 12.5993 67.9461 13.1314C67.4314 13.6634 67.0084 14.4441 66.6769 15.4734C66.3542 16.5027 66.1928 17.5625 66.1928 18.6529C66.1928 20.2666 66.847 21.0734 68.1554 21.0734C68.8096 21.0734 69.3984 20.8074 69.9218 20.2753C70.4451 19.7345 70.8507 18.9887 71.1386 18.0379C71.4352 17.0784 71.5835 16.036 71.5835 14.9108ZM75.5479 14.9108C75.5479 16.7513 75.2383 18.3825 74.619 19.8043C74.0084 21.2261 73.123 22.3295 71.9629 23.1145C70.8028 23.8909 69.4246 24.279 67.8283 24.279C66.1274 24.279 64.7666 23.7687 63.7461 22.7482C62.7342 21.7189 62.2283 20.3538 62.2283 18.6529C62.2283 16.7949 62.538 15.1419 63.1573 13.694C63.7853 12.2373 64.6881 11.112 65.8657 10.3183C67.0433 9.51577 68.4215 9.11453 70.0003 9.11453C71.7099 9.11453 73.062 9.62917 74.0564 10.6585C75.0508 11.6877 75.5479 13.1052 75.5479 14.9108Z" fill="#CACACA"/>
<path d="M87.9255 12.765C87.3847 14.3176 86.8483 15.7089 86.3162 16.9388L83.2676 24.0173H79.0283L78.361 9.38929H82.0377L82.09 15.8659L82.0377 18.051L81.9461 20.2884H81.9984C82.0508 20.1139 82.1118 19.9351 82.1816 19.7519C82.2514 19.56 82.4738 18.9625 82.8489 17.9594C83.224 16.9563 83.4246 16.4373 83.4508 16.4024L86.4732 9.38929H90.7648V16.4024C90.7648 17.641 90.7212 18.9363 90.6339 20.2884H90.7124L91.0788 19.2416C91.7156 17.4273 92.1299 16.3021 92.3218 15.8659L95.1872 9.38929H99.204L92.2695 24.0173H87.9517L87.8732 17.2136C87.8732 15.8616 87.9168 14.3787 88.004 12.765H87.9255Z" fill="#CACACA"/>
<path d="M116.606 4.88836L113.976 17.2659C113.479 19.5862 112.528 21.3351 111.124 22.5127C109.719 23.6902 107.892 24.279 105.641 24.279C103.792 24.279 102.336 23.7862 101.271 22.8005C100.216 21.8061 99.6882 20.4628 99.6882 18.7706C99.6882 18.1426 99.7536 17.5407 99.8844 16.965L102.449 4.88836H106.44L103.901 16.9127C103.753 17.5582 103.679 18.1033 103.679 18.5482C103.679 20.1008 104.503 20.8772 106.152 20.8772C107.225 20.8772 108.075 20.5457 108.703 19.8828C109.331 19.2111 109.785 18.2124 110.064 16.8865L112.602 4.88836H116.606Z" fill="#CACACA"/>
<path d="M123.2 13.8902H123.933C125.172 13.8902 126.144 13.5893 126.851 12.9874C127.566 12.3856 127.924 11.5787 127.924 10.5669C127.924 8.99677 127.073 8.21172 125.372 8.21172H124.404L123.2 13.8902ZM131.941 10.4622C131.941 12.5644 131.199 14.2173 129.716 15.4211C128.242 16.6161 126.205 17.2136 123.606 17.2136H122.481L121.055 24.0173H117.064L121.107 4.88836H125.529C127.64 4.88836 129.236 5.35502 130.318 6.28836C131.4 7.21297 131.941 8.60425 131.941 10.4622Z" fill="#CACACA"/>
<path d="M21.5578 8.48751H13.3811L16.3996 2.21679C16.683 1.48247 15.8681 0.757812 14.7557 0.757812H4.55252C3.70225 0.757812 2.97953 1.18778 2.86616 1.76267L0.598783 13.3572C0.464157 14.0529 1.25774 14.6713 2.28514 14.6713H10.6957L7.42926 24.0677C7.17418 24.802 7.9961 25.4928 9.08019 25.4928C9.67537 25.4928 10.2422 25.2803 10.554 24.9131L23.0246 10.2267C23.6835 9.45856 22.8687 8.48751 21.5578 8.48751Z" fill="#CACACA"/>
</svg>
