<svg width="150" height="31" viewBox="0 0 150 31" fill="none" xmlns="http://www.w3.org/2000/svg">
<path d="M58.2767 24.135H54.2337V15.8789H46.658V24.135H42.6019V5.00603H46.658V12.5032H54.2337V5.00603H58.2767V24.135Z" fill="#CACACA"/>
<path d="M62.6337 5.72566C62.6337 4.42597 63.3577 3.77612 64.8057 3.77612C66.2537 3.77612 66.9777 4.42597 66.9777 5.72566C66.9777 6.34497 66.7945 6.82909 66.4281 7.178C66.0705 7.51818 65.5297 7.68828 64.8057 7.68828C63.3577 7.68828 62.6337 7.03407 62.6337 5.72566ZM66.7945 24.135H62.8038V9.50697H66.7945V24.135Z" fill="#CACACA"/>
<path d="M83.7253 9.50697V11.535L81.4356 12.1238C81.8543 12.778 82.0637 13.5107 82.0637 14.3219C82.0637 15.892 81.5141 17.1176 80.4151 17.9986C79.3247 18.8708 77.8069 19.307 75.8618 19.307L75.1422 19.2677L74.5534 19.2023C74.1434 19.5163 73.9384 19.8652 73.9384 20.249C73.9384 20.8247 74.6711 21.1126 76.1365 21.1126H78.6225C80.2275 21.1126 81.4487 21.4571 82.2861 22.1462C83.1322 22.8353 83.5552 23.8472 83.5552 25.1818C83.5552 26.8914 82.84 28.2173 81.4094 29.1593C79.9876 30.1014 77.9422 30.5724 75.273 30.5724C73.2319 30.5724 71.6705 30.2148 70.5889 29.4995C69.516 28.793 68.9795 27.7986 68.9795 26.5163C68.9795 25.6353 69.2543 24.8983 69.8038 24.3051C70.3534 23.712 71.1602 23.2889 72.2244 23.036C71.8144 22.8615 71.4568 22.578 71.1515 22.1855C70.8462 21.7842 70.6935 21.3612 70.6935 20.9163C70.6935 20.3581 70.8549 19.8958 71.1777 19.5294C71.5004 19.1543 71.9671 18.788 72.5777 18.4303C71.8101 18.0989 71.1995 17.5668 70.7459 16.8341C70.301 16.1014 70.0786 15.2378 70.0786 14.2434C70.0786 12.6472 70.5976 11.4129 71.6356 10.5406C72.6736 9.66834 74.1565 9.2322 76.0842 9.2322C76.4942 9.2322 76.9783 9.27146 77.5365 9.34996C78.1035 9.41974 78.4655 9.47208 78.6225 9.50697H83.7253ZM72.4337 26.2023C72.4337 26.7518 72.6954 27.1836 73.2188 27.4976C73.7509 27.8117 74.4923 27.9687 75.4431 27.9687C76.8736 27.9687 77.9945 27.7724 78.8057 27.3799C79.6169 26.9874 80.0225 26.4509 80.0225 25.7705C80.0225 25.221 79.7827 24.8416 79.3029 24.6322C78.8232 24.4229 78.0817 24.3182 77.0786 24.3182H75.0113C74.2786 24.3182 73.6636 24.4883 73.1664 24.8285C72.678 25.1774 72.4337 25.6353 72.4337 26.2023ZM73.8861 14.2958C73.8861 15.0895 74.0649 15.7176 74.4225 16.1799C74.7889 16.6422 75.3428 16.8733 76.0842 16.8733C76.8344 16.8733 77.3839 16.6422 77.7328 16.1799C78.0817 15.7176 78.2562 15.0895 78.2562 14.2958C78.2562 12.5338 77.5322 11.6528 76.0842 11.6528C74.6188 11.6528 73.8861 12.5338 73.8861 14.2958Z" fill="#CACACA"/>
<path d="M99.6487 24.135H95.6581V15.5911C95.6581 13.4802 94.873 12.4247 93.3029 12.4247C92.1864 12.4247 91.3796 12.8042 90.8824 13.563C90.3852 14.3219 90.1366 15.5518 90.1366 17.2528V24.135H86.1459V3.77612H90.1366V7.92379C90.1366 8.24653 90.106 9.00541 90.045 10.2004L89.9534 11.378H90.1627C91.0524 9.94747 92.4655 9.2322 94.402 9.2322C96.1204 9.2322 97.4244 9.69451 98.3141 10.6191C99.2039 11.5437 99.6487 12.8696 99.6487 14.5967V24.135Z" fill="#CACACA"/>
<path d="M107.748 24.135H103.757V3.77612H107.748V24.135Z" fill="#CACACA"/>
<path d="M115.127 16.7948C115.127 18.2428 115.363 19.3375 115.834 20.0789C116.314 20.8204 117.09 21.1911 118.163 21.1911C119.227 21.1911 119.99 20.8247 120.452 20.092C120.924 19.3506 121.159 18.2515 121.159 16.7948C121.159 15.3469 120.924 14.2609 120.452 13.5369C119.981 12.8129 119.209 12.4509 118.137 12.4509C117.072 12.4509 116.305 12.8129 115.834 13.5369C115.363 14.2521 115.127 15.3381 115.127 16.7948ZM125.241 16.7948C125.241 19.1761 124.613 21.0384 123.357 22.3818C122.101 23.7251 120.352 24.3967 118.11 24.3967C116.706 24.3967 115.467 24.0914 114.395 23.4808C113.322 22.8615 112.497 21.9761 111.922 20.8247C111.346 19.6733 111.058 18.33 111.058 16.7948C111.058 14.4048 111.682 12.5468 112.929 11.221C114.176 9.89513 115.93 9.2322 118.189 9.2322C119.593 9.2322 120.832 9.5375 121.905 10.1481C122.978 10.7587 123.802 11.6353 124.378 12.778C124.953 13.9207 125.241 15.2596 125.241 16.7948Z" fill="#CACACA"/>
<path d="M140.563 24.135L139.438 19.0191L137.92 12.5556H137.828L135.159 24.135H130.867L126.707 9.50697H130.684L132.372 15.9836C132.643 17.1437 132.917 18.7444 133.196 20.7855H133.275C133.31 20.1226 133.462 19.0715 133.733 17.6322L133.942 16.5201L135.748 9.50697H140.144L141.858 16.5201C141.893 16.712 141.945 16.9955 142.015 17.3705C142.094 17.7456 142.168 18.1469 142.238 18.5743C142.307 18.993 142.368 19.4073 142.421 19.8173C142.482 20.2185 142.517 20.5413 142.525 20.7855H142.604C142.682 20.1574 142.822 19.2983 143.023 18.2079C143.223 17.1088 143.367 16.3674 143.454 15.9836L145.208 9.50697H149.12L144.907 24.135H140.563Z" fill="#CACACA"/>
<path d="M13.9135 27.2271C21.5976 27.2271 27.8269 21.2285 27.8269 13.8289C27.8269 6.42929 21.5976 0.43076 13.9135 0.43076C6.2293 0.43076 2.48009e-07 6.42935 1.5977e-07 13.8289C7.1532e-08 21.2285 6.22925 27.2271 13.9135 27.2271ZM24.2363 13.8289L3.59057 13.8289C3.59057 8.33431 8.20844 3.88835 13.9135 3.88835C19.6194 3.88835 24.2363 8.33518 24.2363 13.8289Z" fill="#CACACA"/>
</svg>
