<svg width="24" height="24" viewBox="0 0 24 24" fill="none" xmlns="http://www.w3.org/2000/svg">
<path d="M21.6794 16.9601L18.5494 9.65013C17.4894 7.17013 15.5394 7.07013 14.2294 9.43013L12.3394 12.8401C11.3794 14.5701 9.58944 14.7201 8.34944 13.1701L8.12944 12.8901C6.83944 11.2701 5.01944 11.4701 4.08944 13.3201L2.36944 16.7701C1.15944 19.1701 2.90944 22.0001 5.58944 22.0001H18.3494C20.9494 22.0001 22.6994 19.3501 21.6794 16.9601Z" stroke="#292D32" stroke-width="1.5" stroke-linecap="round" stroke-linejoin="round"/>
<path d="M6.96973 8C8.62658 8 9.96973 6.65685 9.96973 5C9.96973 3.34315 8.62658 2 6.96973 2C5.31287 2 3.96973 3.34315 3.96973 5C3.96973 6.65685 5.31287 8 6.96973 8Z" stroke="#292D32" stroke-width="1.5" stroke-linecap="round" stroke-linejoin="round"/>
</svg>
