<svg width="651" height="520" viewBox="0 0 651 520" fill="none" xmlns="http://www.w3.org/2000/svg">
<path d="M290.225 429.088C320.69 429.088 345.387 423.629 345.387 416.895C345.387 410.161 320.69 404.702 290.225 404.702C259.76 404.702 235.062 410.161 235.062 416.895C235.062 423.629 259.76 429.088 290.225 429.088Z" fill="black"/>
<path d="M290.226 416.895L259.24 513.873" stroke="black" stroke-width="4" stroke-miterlimit="10" stroke-linecap="round"/>
<path d="M290.225 416.895L321.21 513.873" stroke="black" stroke-width="4" stroke-miterlimit="10" stroke-linecap="round"/>
<path d="M269.414 482.03L303.957 459.882" stroke="black" stroke-width="2" stroke-miterlimit="10" stroke-linecap="round"/>
<path d="M276.354 459.882L310.905 482.03" stroke="black" stroke-width="2" stroke-miterlimit="10" stroke-linecap="round"/>
<path d="M344.513 311.919C344.373 316.22 344.435 331.28 343.727 337.722" stroke="#1F161E" stroke-miterlimit="10" stroke-linecap="round"/>
<path d="M167.052 121.461C167.052 118.405 164.575 115.928 161.519 115.928C158.463 115.928 155.986 118.405 155.986 121.461V140.559C155.986 143.615 158.463 146.092 161.519 146.092C164.575 146.092 167.052 143.615 167.052 140.559V121.461Z" fill="black"/>
<path d="M161.519 178.196C167.649 178.196 172.619 173.226 172.619 167.095C172.619 160.965 167.649 155.995 161.519 155.995C155.388 155.995 150.418 160.965 150.418 167.095C150.418 173.226 155.388 178.196 161.519 178.196Z" fill="#FBDC8E"/>
<path d="M532.629 298.931H537.874C538.425 298.928 538.953 298.709 539.342 298.319C539.732 297.929 539.952 297.401 539.954 296.85V264.615C539.955 264.342 539.901 264.071 539.796 263.819C539.691 263.567 539.537 263.338 539.342 263.146L532.717 256.521C532.524 256.327 532.296 256.174 532.044 256.069C531.792 255.964 531.521 255.909 531.248 255.909H511.678C511.127 255.911 510.599 256.131 510.209 256.521C509.82 256.911 509.6 257.438 509.598 257.989V261.101" fill="#FBDC8E"/>
<path d="M76.9697 375.849C93.577 378.995 90.6139 478.115 58.7367 472.119C28.6338 466.402 56.7088 371.994 76.9697 375.849Z" fill="black"/>
<path d="M4.05541 388.086C17.2713 380.604 72.591 450.214 47.2868 464.532C23.381 478.115 -12.0362 397.211 4.05541 388.086Z" fill="#FBDC8E"/>
<path d="M71.4028 520H38.0309C36.6867 520 35.3899 519.504 34.3885 518.607C33.387 517.711 32.7513 516.476 32.6029 515.14L28.3899 477.311C28.2986 476.543 28.3708 475.765 28.6018 475.028C28.8328 474.291 29.2173 473.611 29.7301 473.033C30.2429 472.455 30.8723 471.992 31.5769 471.675C32.2814 471.357 33.0452 471.193 33.8179 471.192H75.441C76.2075 471.193 76.9653 471.354 77.6652 471.667C78.3651 471.98 78.9913 472.436 79.5033 473.006C80.0152 473.577 80.4014 474.249 80.6367 474.978C80.872 475.708 80.9511 476.479 80.8689 477.241L76.8395 515.07C76.7052 516.42 76.0746 517.671 75.0701 518.582C74.0656 519.493 72.7587 519.998 71.4028 520Z" fill="#969696"/>
<path d="M86.3495 337.25C98.9973 340.921 89.3039 417.428 65.0835 410.383C42.2179 403.74 70.9572 332.775 86.3495 337.25Z" fill="#AB8DE5"/>
<path d="M107.204 398.12C115.945 405.655 80.3881 463.291 63.5885 448.816C47.7242 435.207 96.5321 388.96 107.204 398.12Z" fill="#FBDC8E"/>
<path d="M54.8032 345.204C73.7355 345.204 91.0683 466.088 54.8032 466.088C20.5573 466.088 31.7541 345.204 54.8032 345.204Z" fill="#78E5E1"/>
<path d="M88.0267 463.011H21.4228C19.4677 463.011 17.8828 464.596 17.8828 466.551V473.001C17.8828 474.956 19.4677 476.541 21.4228 476.541H88.0267C89.9818 476.541 91.5667 474.956 91.5667 473.001V466.551C91.5667 464.596 89.9818 463.011 88.0267 463.011Z" fill="#D8D8D8"/>
<path d="M523.82 261.102H504.591C504.282 261.102 503.977 261.162 503.692 261.281C503.407 261.399 503.149 261.572 502.931 261.791C502.713 262.009 502.541 262.268 502.424 262.554C502.307 262.839 502.247 263.144 502.248 263.453V301.737C502.248 302.359 502.495 302.956 502.934 303.396C503.373 303.837 503.968 304.086 504.591 304.088H530.279C530.901 304.086 531.497 303.837 531.936 303.396C532.375 302.956 532.622 302.359 532.622 301.737V269.921C532.623 269.613 532.563 269.308 532.446 269.023C532.329 268.738 532.157 268.479 531.94 268.26L525.472 261.792C525.034 261.352 524.44 261.104 523.82 261.102V261.102Z" fill="#D8D8D8"/>
<path d="M532.629 269.003H526.1C525.752 269.003 525.419 268.865 525.173 268.619C524.927 268.373 524.789 268.04 524.789 267.692V261.102" fill="#969696"/>
<path d="M539.982 263.819H533.453C533.103 263.817 532.769 263.677 532.522 263.43C532.275 263.183 532.135 262.849 532.133 262.5V255.909" fill="#64CCC4"/>
<path d="M502.274 217.337H457.207C455.744 217.337 454.559 218.523 454.559 219.985V234.705C454.559 236.167 455.744 237.353 457.207 237.353H502.274C503.737 237.353 504.922 236.167 504.922 234.705V219.985C504.922 218.523 503.737 217.337 502.274 217.337Z" fill="#78E5E1"/>
<path d="M479.732 251.076L485.798 232.703H473.666L479.732 251.076Z" fill="#78E5E1"/>
<path d="M467.714 222.668L462.627 231.47H472.792L467.714 222.668Z" fill="white"/>
<path d="M491.759 231.47L496.846 222.668H486.672L491.759 231.47Z" fill="white"/>
<path d="M479.732 230.894C481.841 230.894 483.551 229.184 483.551 227.074C483.551 224.965 481.841 223.254 479.732 223.254C477.622 223.254 475.912 224.965 475.912 227.074C475.912 229.184 477.622 230.894 479.732 230.894Z" fill="white"/>
<path d="M475.807 174.918H446.228C444.949 174.918 443.912 175.955 443.912 177.235V195.118C443.912 196.397 444.949 197.434 446.228 197.434H475.807C477.086 197.434 478.123 196.397 478.123 195.118V177.235C478.123 175.955 477.086 174.918 475.807 174.918Z" fill="#D8D8D8"/>
<path d="M444.988 175.626L461.019 186.176" stroke="#969696" stroke-width="0.82" stroke-linecap="round" stroke-linejoin="round"/>
<path d="M478.123 174.918L461.018 186.176" stroke="#969696" stroke-width="0.82" stroke-linecap="round" stroke-linejoin="round"/>
<path d="M478.123 179.813C480.827 179.813 483.018 177.622 483.018 174.918C483.018 172.215 480.827 170.023 478.123 170.023C475.42 170.023 473.229 172.215 473.229 174.918C473.229 177.622 475.42 179.813 478.123 179.813Z" fill="#FBDC8E"/>
<path d="M479.306 177.426H478.643V173.031L477.313 173.519V172.92L479.202 172.211H479.306V177.426Z" fill="white"/>
<path d="M649.808 188.65H522.194C521.6 188.65 521.119 189.131 521.119 189.725V190.389C521.119 190.983 521.6 191.464 522.194 191.464H649.808C650.402 191.464 650.883 190.983 650.883 190.389V189.725C650.883 189.131 650.402 188.65 649.808 188.65Z" fill="#D8D8D8"/>
<path d="M576.098 132.762H568.345C567.109 132.762 566.107 133.764 566.107 135V186.412C566.107 187.648 567.109 188.65 568.345 188.65H576.098C577.334 188.65 578.336 187.648 578.336 186.412V135C578.336 133.764 577.334 132.762 576.098 132.762Z" fill="#969696"/>
<path d="M582.591 145.864H580.196C579.168 145.864 578.334 146.698 578.334 147.726V186.788C578.334 187.816 579.168 188.65 580.196 188.65H582.591C583.619 188.65 584.452 187.816 584.452 186.788V147.726C584.452 146.698 583.619 145.864 582.591 145.864Z" fill="#D8D8D8"/>
<path d="M588.771 145.864H586.254C585.259 145.864 584.453 146.67 584.453 147.665V186.849C584.453 187.844 585.259 188.65 586.254 188.65H588.771C589.766 188.65 590.572 187.844 590.572 186.849V147.665C590.572 146.67 589.766 145.864 588.771 145.864Z" fill="#969696"/>
<path d="M593.207 148.926L591.142 149.874C590.177 150.318 589.754 151.459 590.197 152.424L606.444 187.813C606.887 188.778 608.028 189.201 608.994 188.758L611.059 187.81C612.024 187.367 612.447 186.225 612.004 185.26L595.757 149.872C595.314 148.906 594.173 148.483 593.207 148.926Z" fill="#D8D8D8"/>
<path d="M572.216 174.508C574.104 174.508 575.634 172.977 575.634 171.09C575.634 169.202 574.104 167.672 572.216 167.672C570.329 167.672 568.799 169.202 568.799 171.09C568.799 172.977 570.329 174.508 572.216 174.508Z" fill="#D8D8D8"/>
<path d="M575.311 176.553H569.122C568.669 176.553 568.301 176.921 568.301 177.374C568.301 177.828 568.669 178.196 569.122 178.196H575.311C575.765 178.196 576.132 177.828 576.132 177.374C576.132 176.921 575.765 176.553 575.311 176.553Z" fill="#D8D8D8"/>
<path d="M575.311 180.757H569.122C568.669 180.757 568.301 181.125 568.301 181.578C568.301 182.032 568.669 182.4 569.122 182.4H575.311C575.765 182.4 576.132 182.032 576.132 181.578C576.132 181.125 575.765 180.757 575.311 180.757Z" fill="#D8D8D8"/>
<path d="M512.692 265.052H506.503C506.049 265.052 505.682 265.42 505.682 265.874C505.682 266.328 506.049 266.695 506.503 266.695H512.692C513.145 266.695 513.513 266.328 513.513 265.874C513.513 265.42 513.145 265.052 512.692 265.052Z" fill="#969696"/>
<path d="M512.692 269.003H506.503C506.049 269.003 505.682 269.371 505.682 269.825C505.682 270.278 506.049 270.646 506.503 270.646H512.692C513.145 270.646 513.513 270.278 513.513 269.825C513.513 269.371 513.145 269.003 512.692 269.003Z" fill="#969696"/>
<path d="M528.741 275.759H506.146C505.692 275.759 505.324 276.127 505.324 276.581C505.324 277.035 505.692 277.403 506.146 277.403H528.741C529.194 277.403 529.562 277.035 529.562 276.581C529.562 276.127 529.194 275.759 528.741 275.759Z" fill="#969696"/>
<path d="M528.741 279.64H506.146C505.692 279.64 505.324 280.008 505.324 280.462C505.324 280.916 505.692 281.283 506.146 281.283H528.741C529.194 281.283 529.562 280.916 529.562 280.462C529.562 280.008 529.194 279.64 528.741 279.64Z" fill="#969696"/>
<path d="M528.741 283.521H506.146C505.692 283.521 505.324 283.889 505.324 284.343C505.324 284.796 505.692 285.164 506.146 285.164H528.741C529.194 285.164 529.562 284.796 529.562 284.343C529.562 283.889 529.194 283.521 528.741 283.521Z" fill="#969696"/>
<path d="M582.032 152.324C582.032 151.971 581.746 151.686 581.394 151.686C581.042 151.686 580.756 151.971 580.756 152.324V182.182C580.756 182.534 581.042 182.82 581.394 182.82C581.746 182.82 582.032 182.534 582.032 182.182V152.324Z" fill="#969696"/>
<path d="M555.189 190.057H549.717C548.515 190.057 547.541 191.032 547.541 192.234C547.541 193.436 548.515 194.41 549.717 194.41H555.189C556.391 194.41 557.366 193.436 557.366 192.234C557.366 191.032 556.391 190.057 555.189 190.057Z" fill="#D8D8D8"/>
<path d="M622.283 190.057H616.811C615.609 190.057 614.635 191.032 614.635 192.234C614.635 193.436 615.609 194.41 616.811 194.41H622.283C623.485 194.41 624.459 193.436 624.459 192.234C624.459 191.032 623.485 190.057 622.283 190.057Z" fill="#D8D8D8"/>
<path d="M415.751 194.314H383.838C378.046 194.314 373.35 199.01 373.35 204.803V220.37C373.35 226.163 378.046 230.859 383.838 230.859H415.751C421.543 230.859 426.239 226.163 426.239 220.37V204.803C426.239 199.01 421.543 194.314 415.751 194.314Z" fill="#D8D8D8"/>
<path d="M392.247 200.196H384.293V224.976H392.247V200.196Z" fill="#AB8DE5"/>
<path d="M403.774 216.681H395.82V224.985H403.774V216.681Z" fill="#AB8DE5"/>
<path d="M415.296 209.688H407.342V224.976H415.296V209.688Z" fill="#AB8DE5"/>
<path d="M161.518 133.627C157.122 133.626 152.769 134.491 148.707 136.173C144.646 137.854 140.955 140.319 137.847 143.427C134.738 146.535 132.272 150.225 130.589 154.286C128.907 158.347 128.041 162.7 128.041 167.095H194.995C194.995 162.7 194.129 158.347 192.446 154.286C190.764 150.225 188.298 146.535 185.189 143.427C182.08 140.319 178.39 137.854 174.328 136.173C170.267 134.491 165.914 133.626 161.518 133.627V133.627Z" fill="#AB8DE5"/>
<path d="M161.52 122.299V0.874023" stroke="black" stroke-width="2" stroke-linecap="round" stroke-linejoin="round"/>
<path d="M424.088 502.309C424.088 504.38 422.873 517.448 425.294 518.654C427.715 519.86 454.331 520.594 455.537 519.379C456.743 518.164 457.469 515.63 456.411 514.904C455.353 514.179 445.048 512.125 443.65 511.154C442.251 510.184 440.319 505.036 441.027 502.309" fill="#1F161E"/>
<path d="M344.513 331.49L359.495 326.115C358.848 298.782 352.458 237.711 343.386 228.63C341.253 226.506 299.07 222.8 291.545 222.8C246.635 222.8 233.314 227.922 229.932 231.313C219.443 241.802 216.174 290.4 216.174 307.418C216.174 324.436 264.248 333.264 264.248 333.264L320.599 337.137C320.599 337.137 332.958 338.413 343.648 339.042C343.884 335.764 344.513 331.49 344.513 331.49Z" fill="#78E5E1"/>
<path d="M389.152 347.337C393.252 346.122 434.018 339.47 442.899 348.211C451.779 356.952 479.732 482.267 479.732 485.151H457.225L426.842 419.762" fill="#1F161E"/>
<path d="M240.726 336.192C239.703 341.306 233.559 346.795 233.559 374.651C233.559 413.171 265.112 413.984 276.44 413.984C311.735 413.984 368.838 403.495 372.693 401.573C375.254 405.855 422.392 502.09 422.611 504.24H444.314C444.314 504.24 430.862 360.264 406.589 343.937C398.705 338.692 258.828 333.081 240.726 336.192Z" fill="#55B79D"/>
<path d="M367.816 308.03C362.117 308.03 357.414 309.385 344.513 311.919L343.84 336.603C356.077 331.673 358.918 324.821 362.466 324.821C371.329 324.821 375.962 329.392 381.197 329.392C384.851 329.392 391.424 326.525 391.424 322.627C391.424 314.463 374.878 308.03 367.816 308.03Z" fill="#F8CDBA"/>
<path d="M458.5 483.42C458.5 485.501 457.285 498.559 459.706 499.774C462.128 500.989 488.743 501.706 489.949 500.5C491.155 499.293 491.881 496.75 490.823 496.024C489.765 495.299 479.46 493.236 478.062 492.266C476.663 491.296 474.732 486.147 475.44 483.42" fill="#1F161E"/>
<path d="M299.491 228.612C299.491 231.908 280.357 232.004 280.357 228.612V201.813H299.491V228.612Z" fill="#F8CDBA"/>
<path d="M293.259 210.65C291.51 210.65 280.357 215.58 280.357 218.333V203.789C283.137 203.789 293.259 210.65 293.259 210.65Z" fill="#1F161E"/>
<path d="M296.956 211.786C309.748 211.786 320.118 201.416 320.118 188.624C320.118 175.831 309.748 165.461 296.956 165.461C284.163 165.461 273.793 175.831 273.793 188.624C273.793 201.416 284.163 211.786 296.956 211.786Z" fill="#F8CDBA"/>
<path d="M320.861 170.443C317.994 174.997 311.998 177.086 305.503 177.086C299.97 177.086 291.911 175.478 286.178 178.747C283.075 180.495 279.517 184.472 278.8 192.435C278.8 193.798 277.253 199.086 277.253 200.791C277.253 201.953 275.942 202.714 273.757 202.714C272.63 202.714 270.401 200.887 270.401 198.099C270.401 194.873 271.686 193.728 271.686 190.993C271.686 188.257 268.338 185.626 268.338 178.021C268.338 167.069 275.33 160.322 280.278 160.322C284.788 160.322 286.204 161.37 286.772 161.816C286.772 151.861 299.883 147.315 305.084 147.315C311.027 147.315 313.824 149.754 313.824 152.857C313.824 157.804 311.464 162.009 310.267 162.952C312.977 160.514 316.498 159.171 320.144 159.185C326.953 159.185 329.243 163.66 329.243 166.72C329.243 173.371 321.263 179.534 318.291 179.534C317.543 177.952 316.666 176.434 315.669 174.997" fill="#1F161E"/>
<path d="M279.519 196.622C282.246 196.622 284.457 194.411 284.457 191.683C284.457 188.956 282.246 186.745 279.519 186.745C276.791 186.745 274.58 188.956 274.58 191.683C274.58 194.411 276.791 196.622 279.519 196.622Z" fill="#F8CDBA"/>
<path d="M320.346 192.871C322.46 192.871 324.174 191.979 324.174 190.879C324.174 189.778 322.46 188.886 320.346 188.886C318.232 188.886 316.518 189.778 316.518 190.879C316.518 191.979 318.232 192.871 320.346 192.871Z" fill="#FA9E9F"/>
<path d="M296.264 192.871C298.378 192.871 300.092 191.979 300.092 190.879C300.092 189.778 298.378 188.886 296.264 188.886C294.15 188.886 292.436 189.778 292.436 190.879C292.436 191.979 294.15 192.871 296.264 192.871Z" fill="#FA9E9F"/>
<path d="M310.992 186.745C311.709 187.767 315.362 192.059 311.508 193.798" stroke="#1F161E" stroke-miterlimit="10" stroke-linecap="round"/>
<path d="M303.791 198.807C302.637 198.807 300.863 197.373 299.928 196.088" stroke="#1F161E" stroke-miterlimit="10" stroke-linecap="round"/>
<path d="M334.33 261.014C336.078 264.728 344.513 300.565 344.513 311.919" stroke="#1F161E" stroke-miterlimit="10" stroke-linecap="round"/>
<path d="M216.174 304.534C216.174 344.819 216.55 356.506 232.72 356.506C269.99 356.506 326.333 325.913 336.376 325.913C345.247 325.913 349.88 330.493 355.116 330.493C358.76 330.493 365.333 327.618 365.333 323.728C365.333 315.556 348.787 309.123 341.734 309.123C325.852 309.123 262.473 324.436 260.926 324.436C259.379 324.436 256.774 323.763 256.774 321.158C256.774 316.43 259.868 305.504 260.271 304.551L216.174 304.534Z" fill="#F8CDBA"/>
<path d="M269.58 269.396C268.514 272.464 260.202 304.166 259.24 308.03" stroke="#1F161E" stroke-miterlimit="10" stroke-linecap="round"/>
<path d="M585.151 514.604C585.78 516.994 588.227 518.423 590.617 517.794C593.008 517.166 594.436 514.719 593.807 512.328L549.056 342.11C548.428 339.72 545.981 338.292 543.59 338.92C541.2 339.549 539.772 341.996 540.4 344.386L585.151 514.604Z" fill="#969696"/>
<path d="M539.956 344.393C540.584 342.003 539.156 339.556 536.766 338.927C534.375 338.299 531.928 339.727 531.3 342.118L486.549 512.335C485.92 514.726 487.348 517.173 489.739 517.801C492.129 518.43 494.576 517.002 495.205 514.611L539.956 344.393Z" fill="#969696"/>
<path d="M478.204 344.392C478.832 342.002 477.404 339.555 475.014 338.926C472.623 338.298 470.176 339.726 469.548 342.117L424.797 512.335C424.168 514.725 425.596 517.172 427.987 517.801C430.377 518.429 432.824 517.001 433.453 514.61L478.204 344.392Z" fill="#D8D8D8"/>
<path d="M522.621 511.462C523.239 513.86 525.683 515.302 528.081 514.684C530.478 514.067 531.921 511.622 531.303 509.225L487.303 338.503C486.685 336.105 484.24 334.663 481.843 335.281C479.445 335.898 478.003 338.343 478.621 340.74L522.621 511.462Z" fill="#D8D8D8"/>
<path d="M226.104 344.397C226.733 342.007 225.304 339.559 222.914 338.931C220.524 338.302 218.076 339.731 217.448 342.121L172.697 512.339C172.069 514.729 173.497 517.177 175.887 517.805C178.278 518.433 180.725 517.005 181.353 514.615L226.104 344.397Z" fill="#969696"/>
<path d="M270.54 514.615C271.168 517.005 273.615 518.434 276.006 517.805C278.396 517.177 279.825 514.73 279.196 512.339L234.445 342.122C233.817 339.731 231.369 338.303 228.979 338.931C226.589 339.56 225.16 342.007 225.789 344.397L270.54 514.615Z" fill="#969696"/>
<path d="M567.506 330.52H134.694C132.507 330.52 130.734 332.293 130.734 334.479V339.802C130.734 341.989 132.507 343.762 134.694 343.762H567.506C569.692 343.762 571.465 341.989 571.465 339.802V334.479C571.465 332.293 569.692 330.52 567.506 330.52Z" fill="#D8D8D8"/>
<path d="M162.145 344.4C162.774 342.009 161.345 339.562 158.955 338.934C156.565 338.305 154.118 339.733 153.489 342.124L108.738 512.342C108.11 514.732 109.538 517.179 111.928 517.808C114.319 518.436 116.766 517.008 117.394 514.617L162.145 344.4Z" fill="#D8D8D8"/>
<path d="M206.581 514.615C207.209 517.006 209.656 518.434 212.047 517.806C214.437 517.177 215.866 514.73 215.237 512.34L170.486 342.122C169.858 339.731 167.41 338.303 165.02 338.931C162.63 339.56 161.201 342.007 161.83 344.398L206.581 514.615Z" fill="#D8D8D8"/>
<path d="M454.76 330.52H373.9L388.55 280.139C388.916 278.923 389.665 277.859 390.686 277.104C391.707 276.349 392.944 275.945 394.214 275.952H462.828C463.729 275.937 464.621 276.134 465.433 276.525C466.245 276.916 466.955 277.492 467.505 278.206C468.055 278.92 468.431 279.752 468.602 280.637C468.773 281.522 468.736 282.435 468.492 283.303L454.76 330.52Z" fill="black"/>
<path d="M424.254 308.179C426.986 308.179 429.201 305.964 429.201 303.231C429.201 300.499 426.986 298.284 424.254 298.284C421.522 298.284 419.307 300.499 419.307 303.231C419.307 305.964 421.522 308.179 424.254 308.179Z" fill="white"/>
<path d="M383.505 326.98H326.77V330.52H383.505V326.98Z" fill="black"/>
</svg>
