<svg width="243" height="96" viewBox="0 0 243 96" fill="none" xmlns="http://www.w3.org/2000/svg">
<path d="M36.2443 8.54102C43.254 3.44814 52.746 3.44814 59.7557 8.54102L81.895 24.6262C88.9048 29.719 91.8379 38.7464 89.1604 46.9868L80.704 73.0132C78.0265 81.2536 70.3474 86.8328 61.6828 86.8328H34.3172C25.6526 86.8328 17.9735 81.2536 15.296 73.0132L6.83957 46.9868C4.16208 38.7464 7.09525 29.719 14.105 24.6262L36.2443 8.54102Z" fill="url(#paint0_linear_14_786)"/>
<g filter="url(#filter0_d_14_786)">
<path d="M63.7297 31.9099C60.583 28.7632 56.5739 26.6203 52.2093 25.7522C47.8448 24.884 43.3208 25.3296 39.2094 27.0325C35.0981 28.7355 31.5841 31.6194 29.1117 35.3195C26.6394 39.0196 25.3198 43.3697 25.3198 47.8198C25.3198 52.2699 26.6394 56.62 29.1117 60.3202C31.5841 64.0203 35.0981 66.9041 39.2094 68.6071C43.3208 70.3101 47.8448 70.7557 52.2093 69.8875C56.5739 69.0193 60.583 66.8764 63.7297 63.7297L59.2707 59.2707C57.0059 61.5355 54.1204 63.0778 50.9791 63.7027C47.8378 64.3275 44.5817 64.0068 41.6226 62.7811C38.6636 61.5555 36.1344 59.4798 34.355 56.8167C32.5756 54.1536 31.6258 51.0227 31.6258 47.8198C31.6258 44.617 32.5756 41.486 34.355 38.8229C36.1344 36.1598 38.6636 34.0842 41.6226 32.8585C44.5817 31.6328 47.8378 31.3121 50.9791 31.937C54.1204 32.5618 57.0059 34.1042 59.2707 36.3689L63.7297 31.9099Z" fill="white"/>
<circle cx="47.8198" cy="47.8198" r="7.5" fill="white"/>
</g>
<path d="M122.632 29.096C118.222 29.096 114.526 30.566 111.544 33.464C108.562 36.362 107.092 39.974 107.092 44.3C107.092 48.626 108.562 52.238 111.544 55.136C114.526 58.034 118.222 59.504 122.632 59.504C125.866 59.504 128.722 58.706 131.242 57.152C133.804 55.598 135.652 53.498 136.87 50.852L129.394 48.08C128.176 50.558 125.656 52.112 122.632 52.112C120.49 52.112 118.726 51.356 117.256 49.886C115.828 48.374 115.114 46.484 115.114 44.258C115.114 42.032 115.828 40.184 117.256 38.714C118.726 37.202 120.49 36.446 122.632 36.446C125.656 36.446 128.176 38 129.394 40.478L136.87 37.748C135.652 35.102 133.804 33.002 131.242 31.448C128.68 29.894 125.824 29.096 122.632 29.096ZM146.485 37.16H139.135V59H146.485V47.45C146.485 45.224 148.123 43.544 150.307 43.544C151.231 43.544 151.987 43.796 152.617 44.258V36.698C152.449 36.656 152.197 36.656 151.903 36.656C149.677 36.656 147.871 37.454 146.485 39.008V37.16ZM161.451 59.126C160.611 60.68 158.931 61.436 156.369 61.436H155.697V68.45H156.369C162.249 68.45 165.693 66.14 167.835 60.722L176.571 37.16H169.011L164.895 49.256L160.905 37.16H153.345L161.451 59.126ZM185.542 68.45V57.782C187.18 58.916 188.986 59.504 190.96 59.504C193.816 59.504 196.21 58.412 198.1 56.228C200.032 54.044 200.998 51.314 200.998 48.08C200.998 44.846 200.032 42.116 198.1 39.932C196.21 37.748 193.816 36.656 190.96 36.656C188.986 36.656 187.18 37.244 185.542 38.378V37.16H178.192V68.45H185.542ZM185.626 48.122C185.626 45.728 187.306 43.88 189.49 43.88C191.674 43.88 193.354 45.728 193.354 48.122C193.354 50.432 191.632 52.28 189.49 52.28C187.348 52.28 185.626 50.432 185.626 48.122ZM202.249 43.544H205.105V51.986C205.105 53.96 205.861 55.64 207.373 56.984C208.885 58.328 210.733 59 212.959 59H216.949V52.28H214.555C213.337 52.28 212.455 51.44 212.455 50.306V43.544H216.907V37.16H212.455V33.002H205.105V37.16H202.249V43.544ZM222.031 56.228C224.257 58.412 227.071 59.504 230.431 59.504C233.791 59.504 236.605 58.412 238.831 56.228C241.099 54.002 242.233 51.314 242.233 48.08C242.233 44.846 241.099 42.158 238.831 39.974C236.605 37.748 233.791 36.656 230.431 36.656C227.071 36.656 224.257 37.748 222.031 39.974C219.805 42.158 218.671 44.846 218.671 48.08C218.671 51.314 219.805 54.002 222.031 56.228ZM230.431 52.28C228.205 52.28 226.357 50.39 226.357 48.08C226.357 45.77 228.205 43.88 230.431 43.88C232.741 43.88 234.547 45.77 234.547 48.08C234.547 50.39 232.741 52.28 230.431 52.28Z" fill="white"/>
<defs>
<filter id="filter0_d_14_786" x="20.3198" y="25.3198" width="48.4099" height="55" filterUnits="userSpaceOnUse" color-interpolation-filters="sRGB">
<feFlood flood-opacity="0" result="BackgroundImageFix"/>
<feColorMatrix in="SourceAlpha" type="matrix" values="0 0 0 0 0 0 0 0 0 0 0 0 0 0 0 0 0 0 127 0" result="hardAlpha"/>
<feOffset dy="5"/>
<feGaussianBlur stdDeviation="2.5"/>
<feComposite in2="hardAlpha" operator="out"/>
<feColorMatrix type="matrix" values="0 0 0 0 0 0 0 0 0 0 0 0 0 0 0 0 0 0 0.1 0"/>
<feBlend mode="normal" in2="BackgroundImageFix" result="effect1_dropShadow_14_786"/>
<feBlend mode="normal" in="SourceGraphic" in2="effect1_dropShadow_14_786" result="shape"/>
</filter>
<linearGradient id="paint0_linear_14_786" x1="48" y1="8.5" x2="48" y2="86.5" gradientUnits="userSpaceOnUse">
<stop stop-color="#3CDDFF"/>
<stop offset="0.321323" stop-color="#4E7DFF"/>
<stop offset="0.786458" stop-color="#9762FF"/>
<stop offset="1" stop-color="#C362FF"/>
</linearGradient>
</defs>
</svg>
