<svg width="261" height="96" viewBox="0 0 261 96" fill="none" xmlns="http://www.w3.org/2000/svg">
<path d="M36.2443 8.54102C43.254 3.44814 52.746 3.44814 59.7557 8.54102L81.895 24.6262C88.9048 29.719 91.8379 38.7464 89.1604 46.9868L80.704 73.0132C78.0265 81.2536 70.3474 86.8328 61.6828 86.8328H34.3172C25.6526 86.8328 17.9735 81.2536 15.296 73.0132L6.83957 46.9868C4.16208 38.7464 7.09525 29.719 14.105 24.6262L36.2443 8.54102Z" fill="url(#paint0_linear_4_760)"/>
<path d="M107.512 29.6V59H115.198V47.87H127.252V40.814H115.198V36.656H129.73V29.6H107.512ZM139.307 37.16H131.957V59H139.307V47.45C139.307 45.224 140.945 43.544 143.129 43.544C144.053 43.544 144.809 43.796 145.439 44.258V36.698C145.271 36.656 145.019 36.656 144.725 36.656C142.499 36.656 140.693 37.454 139.307 39.008V37.16ZM149.911 56.228C152.137 58.412 154.951 59.504 158.311 59.504C161.671 59.504 164.485 58.412 166.711 56.228C168.979 54.002 170.113 51.314 170.113 48.08C170.113 44.846 168.979 42.158 166.711 39.974C164.485 37.748 161.671 36.656 158.311 36.656C154.951 36.656 152.137 37.748 149.911 39.974C147.685 42.158 146.551 44.846 146.551 48.08C146.551 51.314 147.685 54.002 149.911 56.228ZM158.311 52.28C156.085 52.28 154.237 50.39 154.237 48.08C154.237 45.77 156.085 43.88 158.311 43.88C160.621 43.88 162.427 45.77 162.427 48.08C162.427 50.39 160.621 52.28 158.311 52.28ZM172.368 59H179.718V46.736C179.718 44.846 181.02 43.418 182.826 43.418C184.548 43.418 185.85 44.846 185.85 46.736V59H193.2V44.93C193.2 42.62 192.402 40.646 190.848 39.05C189.294 37.454 187.362 36.656 185.136 36.656C182.91 36.656 181.104 37.412 179.718 38.924V37.16H172.368V59ZM194.989 43.544H197.845V51.986C197.845 53.96 198.601 55.64 200.113 56.984C201.625 58.328 203.473 59 205.699 59H209.689V52.28H207.295C206.077 52.28 205.195 51.44 205.195 50.306V43.544H209.647V37.16H205.195V33.002H197.845V37.16H194.989V43.544ZM219.307 59V37.16H211.957V59H219.307ZM215.611 27.164C213.133 27.164 211.201 29.096 211.201 31.616C211.201 34.136 213.133 36.026 215.611 36.026C218.173 36.026 220.063 34.136 220.063 31.616C220.063 29.096 218.173 27.164 215.611 27.164ZM244.646 50.684C244.856 49.886 244.94 49.046 244.94 48.08C244.94 44.846 243.806 42.158 241.58 39.974C239.354 37.748 236.582 36.656 233.264 36.656C229.946 36.656 227.174 37.748 224.948 39.974C222.722 42.158 221.588 44.846 221.588 48.08C221.588 51.314 222.722 54.002 224.99 56.228C227.3 58.412 230.156 59.504 233.6 59.504C238.43 59.504 242.42 57.068 244.31 53.246L237.254 51.944C236.372 52.994 235.196 53.54 233.726 53.54C231.71 53.54 230.156 52.406 229.484 50.684H244.646ZM229.484 45.392C230.114 43.712 231.71 42.62 233.432 42.62C235.28 42.62 236.834 43.712 237.464 45.392H229.484ZM254.427 37.16H247.077V59H254.427V47.45C254.427 45.224 256.065 43.544 258.249 43.544C259.173 43.544 259.929 43.796 260.559 44.258V36.698C260.391 36.656 260.139 36.656 259.845 36.656C257.619 36.656 255.813 37.454 254.427 39.008V37.16Z" fill="black"/>
<g filter="url(#filter0_d_4_760)">
<path d="M37.011 41.6377C29.7249 51.9565 25.3011 69.5121 24 77C37.7339 57.5797 55.371 49.6087 62.4548 47.1449C58.6961 45.9855 47.2753 47.8696 41.0589 49.029C42.6491 44.6812 55.0819 34.1014 72.8636 27C51.2364 28.6232 34.5534 37.8696 30.2164 41.6377H37.011Z" fill="white"/>
</g>
<defs>
<filter id="filter0_d_4_760" x="19" y="27" width="58.8636" height="60" filterUnits="userSpaceOnUse" color-interpolation-filters="sRGB">
<feFlood flood-opacity="0" result="BackgroundImageFix"/>
<feColorMatrix in="SourceAlpha" type="matrix" values="0 0 0 0 0 0 0 0 0 0 0 0 0 0 0 0 0 0 127 0" result="hardAlpha"/>
<feOffset dy="5"/>
<feGaussianBlur stdDeviation="2.5"/>
<feComposite in2="hardAlpha" operator="out"/>
<feColorMatrix type="matrix" values="0 0 0 0 0 0 0 0 0 0 0 0 0 0 0 0 0 0 0.1 0"/>
<feBlend mode="normal" in2="BackgroundImageFix" result="effect1_dropShadow_4_760"/>
<feBlend mode="normal" in="SourceGraphic" in2="effect1_dropShadow_4_760" result="shape"/>
</filter>
<linearGradient id="paint0_linear_4_760" x1="48" y1="8.5" x2="48" y2="86.5" gradientUnits="userSpaceOnUse">
<stop stop-color="#3CDDFF"/>
<stop offset="0.197917" stop-color="#2A9BFD"/>
<stop offset="0.416667" stop-color="#366BFE"/>
<stop offset="0.786458" stop-color="#9762FF"/>
<stop offset="1" stop-color="#C362FF"/>
</linearGradient>
</defs>
</svg>
