<svg width="24" height="25" viewBox="0 0 24 25" fill="none" xmlns="http://www.w3.org/2000/svg">
<path d="M13 9.85205H7" stroke="white" stroke-width="2" stroke-linecap="round" stroke-linejoin="round"/>
<path d="M22 11.8222V13.8823C22 14.4323 21.56 14.8822 21 14.9022H19.04C17.96 14.9022 16.97 14.1122 16.88 13.0322C16.82 12.4022 17.06 11.8122 17.48 11.4022C17.85 11.0222 18.36 10.8022 18.92 10.8022H21C21.56 10.8222 22 11.2722 22 11.8222Z" stroke="white" stroke-width="2" stroke-linecap="round" stroke-linejoin="round"/>
<path d="M17.48 11.4025C17.06 11.8125 16.82 12.4025 16.88 13.0325C16.97 14.1125 17.96 14.9025 19.04 14.9025H21V16.3525C21 19.3525 19 21.3525 16 21.3525H7C4 21.3525 2 19.3525 2 16.3525V9.35254C2 6.63254 3.64 4.73254 6.19 4.41254C6.45 4.37254 6.72 4.35254 7 4.35254H16C16.26 4.35254 16.51 4.36253 16.75 4.40253C19.33 4.70253 21 6.61254 21 9.35254V10.8025H18.92C18.36 10.8025 17.85 11.0225 17.48 11.4025Z" stroke="white" stroke-width="2" stroke-linecap="round" stroke-linejoin="round"/>
</svg>
